PathFileType	4	(X/Y/Z)	D:\TRACE\v60_Jaco2_6-2-23\BothDRS_Motion3_9-platform.trc
DataRate	CameraRate	NumFrames	NumMarkers	Units	OrigDataRate	OrigDataStartFrame	OrigNumFrames
100.00	100.00	      24	5	mm	100.00	1	      7000
Frame#	Time	Left_Front			Right_Front			Left_Aft			Right_Aft			Post			
		X1	Y1	Z1	X2	Y2	Z2	X3	Y3	Z3	X4	Y4	Z4	X5	Y5	Z5	

1	0.000	-814.74847	128.48422	-611.75330	755.74268	125.74193	-588.82892	-745.44708	-73.82463	506.85065	668.53229	-92.45839	608.11737	-22.34608	1462.20300	-684.35455	
2	0.010	-814.71826	128.43193	-611.75195	755.74982	125.72922	-588.78839	-745.47839	-73.83978	506.86288	668.52002	-92.46127	608.14124	-22.35092	1462.21545	-684.34351	
3	0.020	-814.73938	128.46866	-611.77106	755.76367	125.71354	-588.79169	-745.42389	-73.87807	506.83582	668.57440	-92.47011	608.09271	-22.29485	1462.18970	-684.34979	
4	0.030	-814.69171	128.43825	-611.73798	755.78546	125.73351	-588.79602	-745.42303	-73.83224	506.84198	668.54675	-92.45742	608.11908	-22.25775	1462.21655	-684.32849	
5	0.040	-814.72491	128.45230	-611.74744	755.75928	125.71866	-588.79144	-745.42676	-73.85091	506.82547	668.55243	-92.49316	608.09906	-22.28142	1462.20825	-684.35559	
6	0.050	-814.75427	128.48698	-611.75433	755.76776	125.71400	-588.78247	-745.41272	-73.85300	506.82416	668.55542	-92.46200	608.09827	-22.28584	1462.19373	-684.32135	
7	0.060	-814.73523	128.48438	-611.76471	755.78839	125.72248	-588.77576	-745.42212	-73.86594	506.84665	668.56915	-92.48956	608.07416	-22.24785	1462.17932	-684.32196	
8	0.070	-814.71198	128.44414	-611.77069	755.76721	125.71043	-588.78729	-745.41339	-73.87216	506.83344	668.57739	-92.49557	608.05841	-22.28481	1462.20117	-684.29047	
9	0.080	-814.67908	128.41907	-611.75110	755.76239	125.70007	-588.79370	-745.44379	-73.87334	506.84769	668.59039	-92.45081	608.09027	-22.29547	1462.20898	-684.32977	
10	0.090	-814.75891	128.46544	-611.74121	755.75092	125.71135	-588.80609	-745.42188	-73.83657	506.86264	668.52417	-92.44344	608.11005	-22.27965	1462.23340	-684.31738	
11	0.100	-814.70282	128.41283	-611.76489	755.77252	125.70155	-588.80829	-745.40741	-73.84589	506.87061	668.62152	-92.49819	608.04865	-22.28478	1462.18994	-684.33972	
12	0.110	-814.73175	128.45627	-611.73700	755.76471	125.71394	-588.76471	-745.40405	-73.86739	506.84723	668.53479	-92.44312	608.11261	-22.32927	1462.20313	-684.33441	
13	0.120	-814.69147	128.40167	-611.76770	755.76422	125.71368	-588.79742	-745.42218	-73.88521	506.86624	668.61487	-92.47938	608.07312	-22.28671	1462.17212	-684.35468	
14	0.130	-814.70074	128.45398	-611.77417	755.76379	125.73072	-588.79987	-745.47009	-73.83450	506.85376	668.57349	-92.45582	608.08112	-22.25709	1462.20691	-684.28485	
15	0.140	-814.73907	128.46158	-611.76392	755.76984	125.73083	-588.77911	-745.43085	-73.84309	506.83383	668.62903	-92.46439	608.08734	-22.21077	1462.21838	-684.32941	
16	0.150	-814.73438	128.49544	-611.74017	755.77081	125.73220	-588.79120	-745.41174	-73.83688	506.83286	668.62177	-92.48567	608.08130	-22.19913	1462.17908	-684.28381	
17	0.160	-814.74384	128.50087	-611.78400	755.78229	125.73321	-588.80750	-745.39685	-73.83209	506.83728	668.59570	-92.47742	608.11725	-22.26173	1462.18726	-684.30127	
18	0.170	-814.75732	128.50114	-611.72559	755.74591	125.72456	-588.80670	-745.44855	-73.85624	506.83224	668.61023	-92.43522	608.10425	-22.27850	1462.18652	-684.31934	
19	0.180	-814.73291	128.47525	-611.75708	755.74048	125.72354	-588.79083	-745.42786	-73.83725	506.83398	668.58447	-92.46822	608.08527	-22.25029	1462.17322	-684.31696	
20	0.190	-814.71277	128.45523	-611.79950	755.75336	125.73762	-588.80963	-745.43567	-73.84324	506.82721	668.60590	-92.48409	608.08539	-22.22134	1462.17969	-684.30518	
21	0.200	-814.76929	128.50787	-611.77667	755.72467	125.72699	-588.81219	-745.42932	-73.85229	506.82156	668.57190	-92.47171	608.10150	-22.23802	1462.21631	-684.31830	
22	0.210	-814.79321	128.53525	-611.77887	755.77515	125.73219	-588.80005	-745.44800	-73.84734	506.81995	668.51263	-92.51685	608.06946	-22.29484	1462.25793	-684.33826	
23	0.220	-814.76733	128.49649	-611.78180	755.78027	125.72080	-588.79181	-745.42419	-73.86221	506.85043	668.56110	-92.48164	608.07922	-22.30265	1462.21045	-684.36658	
24	0.230	-814.69745	128.43079	-611.80255	755.75842	125.72555	-588.80341	-745.39172	-73.87228	506.84775	668.57208	-92.47876	608.11127	-22.30743	1462.16150	-684.36621	
